<svg width="32" height="48" viewBox="0 0 32 48" xmlns="http://www.w3.org/2000/svg">
  <!-- Bookshelf frame -->
  <rect x="2" y="2" width="28" height="44" fill="#8B4513" stroke="#5D2F0A" stroke-width="1"/>
  <rect x="4" y="4" width="24" height="40" fill="#A0522D"/>
  <!-- Shelves -->
  <rect x="4" y="12" width="24" height="2" fill="#654321"/>
  <rect x="4" y="22" width="24" height="2" fill="#654321"/>
  <rect x="4" y="32" width="24" height="2" fill="#654321"/>
  <!-- Books -->
  <rect x="6" y="6" width="3" height="6" fill="#DC143C"/>
  <rect x="10" y="6" width="3" height="6" fill="#4169E1"/>
  <rect x="14" y="6" width="3" height="6" fill="#228B22"/>
  <rect x="18" y="6" width="3" height="6" fill="#FFD700"/>
  
  <rect x="6" y="14" width="3" height="6" fill="#FF4500"/>
  <rect x="10" y="14" width="3" height="6" fill="#9932CC"/>
  <rect x="14" y="14" width="3" height="6" fill="#00CED1"/>
  
  <rect x="6" y="24" width="3" height="6" fill="#FF1493"/>
  <rect x="10" y="24" width="3" height="6" fill="#32CD32"/>
  <rect x="14" y="24" width="3" height="6" fill="#FF8C00"/>
</svg>